<svg height="32" viewBox="0 0 146 32" width="146" xmlns="http://www.w3.org/2000/svg" xmlns:xlink="http://www.w3.org/1999/xlink"><linearGradient id="a" x1="15.962%" x2="136.692%" y1="-23.926%" y2="197.1%"><stop offset="0" stop-color="#20c6b7"/><stop offset="1" stop-color="#4d9abf"/></linearGradient><g fill="none" fill-rule="evenodd"><rect fill="url(#a)" height="32" rx="4" width="146"/><g fill="#fff"><path d="m72.307 18.259.239.93h.04l1.82-5.585h1.496l-3.11 8.53c-.187.498-.455.93-.803 1.3-.349.369-.82.553-1.412.553a4.345 4.345 0 0 1 -.807-.11l.137-1.059c-.027-.004.054 0 .243.014s.309.02.359.02c.287 0 .522-.127.704-.382s.335-.538.458-.848l.321-.772-2.748-7.246h1.504zm-10.535-1.026c0-1.093.297-1.995.89-2.703.592-.709 1.396-1.063 2.412-1.063 1.026 0 1.836.353 2.43 1.06.595.706.892 1.608.892 2.706v.15c0 1.104-.296 2.006-.888 2.708-.593.702-1.4 1.053-2.42 1.053s-1.829-.352-2.423-1.057c-.595-.704-.893-1.605-.893-2.703v-.15zm1.347.15c0 .785.165 1.432.496 1.942.33.51.821.766 1.473.766.642 0 1.13-.255 1.463-.766.332-.51.499-1.157.499-1.941v-.15c0-.775-.168-1.42-.503-1.935s-.826-.773-1.473-.773c-.642 0-1.129.258-1.46.773-.33.515-.495 1.16-.495 1.934zm-3.103 3.617h-1.347v-10.664h1.347zm-3.11-3.418c0 1.066-.256 1.927-.766 2.58-.51.655-1.215.982-2.113.982-.455 0-.855-.077-1.2-.23a2.294 2.294 0 0 1 -.878-.686v3.616h-1.346v-10.24h1.032l.212.957c.241-.356.542-.627.902-.814s.78-.28 1.258-.28c.916 0 1.628.363 2.136 1.09s.762 1.687.762 2.881v.144zm-1.347-.144c0-.838-.166-1.527-.496-2.067s-.817-.81-1.46-.81c-.387 0-.717.087-.99.263a1.968 1.968 0 0 0 -.664.72v3.576c.169.305.39.544.663.714.274.171.609.257 1.005.257.638 0 1.121-.234 1.45-.7.328-.468.492-1.07.492-1.809zm-9.29 3.706c-1.03 0-1.85-.343-2.458-1.03-.608-.685-.913-1.575-.913-2.669v-.3c0-1.053.314-1.93.94-2.629.627-.7 1.369-1.05 2.225-1.05.999 0 1.753.302 2.263.903.51.602.766 1.404.766 2.406v.841h-4.799l-.02.034c.013.711.193 1.296.54 1.754.346.458.831.687 1.456.687.455 0 .855-.065 1.2-.195.343-.13.64-.309.891-.537l.527.875c-.265.26-.613.477-1.046.65s-.957.26-1.572.26zm-.206-6.618c-.45 0-.836.19-1.155.571-.319.38-.515.858-.588 1.432l.014.034h3.411v-.177c0-.529-.141-.971-.424-1.326-.282-.356-.702-.534-1.258-.534zm-11.833 6.474v-9.953h3.056c1.304 0 2.35.4 3.138 1.2s1.182 1.833 1.182 3.1v1.36c0 1.272-.394 2.305-1.182 3.1-.789.795-1.834 1.193-3.138 1.193zm1.347-8.894v7.841h1.71c.92 0 1.645-.303 2.176-.909s.797-1.383.797-2.331v-1.374c0-.939-.266-1.711-.797-2.317-.53-.606-1.256-.91-2.177-.91z"/><path d="m131.191 18.259.24.93h.04l1.819-5.585h1.497l-3.11 8.53c-.187.498-.455.93-.803 1.3-.35.369-.82.553-1.412.553a4.346 4.346 0 0 1 -.807-.11l.137-1.059c-.027-.004.054 0 .243.014s.308.02.359.02c.287 0 .521-.127.704-.382.182-.255.335-.538.458-.848l.321-.772-2.748-7.246h1.504zm-6.535 2.741v-6.398h-1.155v-.998h1.155v-.937c0-.788.206-1.398.619-1.829.412-.43.988-.646 1.726-.646.155 0 .311.013.468.038s.332.06.523.106l-.164 1.025a3.027 3.027 0 0 0 -.663-.068c-.392 0-.684.117-.875.352s-.287.575-.287 1.022v.937h1.538v.998h-1.538v6.398zm-2.632-9.29h-1.346v-1.374h1.346zm0 9.29h-1.346v-7.396h1.346zm-3.527 0h-1.347v-10.664h1.347zm-4.518-9.18v1.784h1.4v.998h-1.4v4.49c0 .347.071.59.215.732.143.141.334.212.57.212a1.569 1.569 0 0 0 .506-.096l.178.923c-.1.082-.247.15-.44.202a2.229 2.229 0 0 1 -.585.079c-.547 0-.982-.166-1.306-.496-.323-.33-.485-.849-.485-1.555v-4.491h-1.176v-.998h1.176v-1.785h1.347zm-8.57 8.295c-.608-.686-.912-1.576-.912-2.67v-.3c0-1.053.313-1.93.94-2.629.627-.7 1.368-1.05 2.225-1.05.998 0 1.752.302 2.263.903.51.602.765 1.404.765 2.406v.841h-4.798l-.02.034c.013.711.193 1.296.54 1.754.345.458.83.687 1.455.687.456 0 .856-.065 1.2-.195s.641-.309.892-.537l.526.875c-.264.26-.613.477-1.046.65-.432.173-.957.26-1.572.26-1.03 0-1.849-.343-2.457-1.03zm1.098-5.018c-.32.38-.515.858-.588 1.432l.014.034h3.41v-.177c0-.529-.14-.971-.423-1.326-.283-.356-.702-.534-1.258-.534-.451 0-.836.19-1.155.571zm-8.463-1.493.096 1.1c.246-.392.554-.696.926-.912a2.471 2.471 0 0 1 1.268-.325c.798 0 1.415.233 1.853.7.437.468.656 1.189.656 2.164v4.669h-1.347v-4.642c0-.651-.129-1.114-.386-1.387-.258-.274-.65-.41-1.18-.41-.387 0-.73.093-1.028.28a2.047 2.047 0 0 0 -.715.765v5.394h-1.346v-7.396zm-12.954 3.63c0-1.094.296-1.996.889-2.704.592-.709 1.396-1.063 2.413-1.063 1.025 0 1.835.353 2.43 1.06.595.706.892 1.608.892 2.706v.15c0 1.104-.296 2.006-.889 2.708-.592.702-1.399 1.053-2.42 1.053-1.02 0-1.828-.352-2.423-1.057-.595-.704-.892-1.605-.892-2.703zm1.347.15c0 .784.165 1.43.495 1.941.33.51.822.766 1.473.766.643 0 1.13-.255 1.463-.766.333-.51.5-1.157.5-1.941v-.15c0-.775-.168-1.42-.503-1.935s-.826-.773-1.473-.773c-.643 0-1.13.258-1.46.773s-.495 1.16-.495 1.934v.15zm-4.095-5.565v1.785h1.401v.998h-1.401v4.49c0 .347.072.59.215.732.144.141.334.212.57.212a1.569 1.569 0 0 0 .506-.096l.179.923c-.1.082-.248.15-.441.202a2.229 2.229 0 0 1 -.585.079c-.547 0-.982-.166-1.306-.496-.323-.33-.485-.849-.485-1.555v-4.491h-1.175v-.998h1.176v-1.785h1.347z" opacity=".7"/><path d="m21.584 13.366a.757.757 0 0 1 .227.174c.008.008.008.008.015.008h.008l1.746-.75c.007-.007.015-.015.015-.023 0-.007 0-.015-.008-.022l-1.631-1.628c-.008-.007-.016-.007-.016-.007h-.007c-.008 0-.015.007-.015.022l-.357 2.203c.007.008.015.023.023.023zm-3.62-1.476c.083.129.136.28.151.431 0 .008.008.015.015.023l2.596 1.113h.008c.007 0 .015 0 .015-.008a.803.803 0 0 1 .265-.136c.008 0 .016-.008.016-.023l.425-2.657c0-.007 0-.015-.008-.022l-1.624-1.628c-.008-.007-.008-.007-.015-.007-.008 0-.016.007-.016.015l-1.829 2.861c-.007.015-.007.03 0 .038zm8.864 4.095-2.785-2.786c-.008-.007-.016-.007-.016-.007h-.007l-1.89.81c-.008.007-.015.015-.015.022 0 .008.007.023.015.023l4.66 1.99h.008c.007 0 .015 0 .015-.007l.015-.015c.015 0 .015-.023 0-.03zm-.463.454-4.47-1.907h-.008c-.007 0-.015 0-.023.007a.76.76 0 0 1 -.516.303c-.007 0-.022.007-.022.023l-.479 2.96c0 .007 0 .014.008.022a.76.76 0 0 1 .288.53c0 .015.008.022.023.022l2.702.568h.008c.007 0 .015 0 .015-.007l2.474-2.476c.008-.007.008-.015.008-.022 0-.008 0-.015-.008-.023zm-5.92-2.528-2.444-1.045h-.007c-.008 0-.015.008-.023.015a.892.892 0 0 1 -.751.41c-.046 0-.091-.008-.145-.016h-.007c-.008 0-.015.008-.023.015l-2.011 3.141a.023.023 0 0 0 0 .03c.007.008.015.008.023.008h.007l5.366-2.308c.008-.008.015-.015.015-.023v-.068c0-.046.008-.091.015-.129 0-.015-.007-.023-.015-.03zm2.945 5.495-2.376-.492h-.007c-.008 0-.015.008-.023.008a.819.819 0 0 1 -.341.257c-.008 0-.016.015-.016.023l-.569 3.527c0 .015.008.023.015.03h.015c.008 0 .016 0 .016-.007l3.294-3.293c.007-.007.007-.015.007-.022 0-.023-.007-.03-.015-.03zm-3.317-.242a.78.78 0 0 1 -.455-.53c0-.007-.008-.015-.023-.023l-4.402-.915h-.007c-.008 0-.016.007-.023.015-.023.038-.038.068-.06.098a.023.023 0 0 0 0 .03l4.006 5.844c.008.007.008.007.016.007.007 0 .015 0 .015-.007l.243-.242c0-.008.007-.008.007-.015l.683-4.24c.015 0 .015-.014 0-.022zm-4.789-2.006c0 .015.008.023.023.023l4.364.908h.008c.007 0 .015-.007.022-.015a.763.763 0 0 1 .615-.394c.015 0 .023-.007.023-.022l.47-2.915c0-.007 0-.022-.015-.022-.03-.023-.06-.046-.098-.083-.008-.008-.016-.008-.016-.008h-.007l-5.396 2.324c-.016.007-.016.015-.016.03.008.06.023.114.023.174zm-1.829.734a1.107 1.107 0 0 1 -.068-.098c-.008-.008-.015-.015-.023-.015h-.008l-1.882.81c-.007 0-.015.007-.015.015 0 .007 0 .015.008.023l.918.915a.024.024 0 0 0 .015.008c.008 0 .015-.008.023-.015l1.04-1.628s0-.007-.008-.015zm1.245.296c-.008-.008-.015-.016-.023-.016h-.008a1.026 1.026 0 0 1 -.751.038h-.008c-.007 0-.015.008-.022.015l-1.093 1.711-.008.008a.023.023 0 0 0 0 .03l5.025 5.018c.007.008.015.008.015.008.007 0 .015 0 .015-.008l.88-.885a.023.023 0 0 0 0-.03l-4.022-5.89zm-.706-1.976c.008.008.015.015.023.015h.007c.076-.015.16-.03.236-.03.083 0 .174.015.258.038h.007c.008 0 .015-.008.023-.015l2.034-3.18a.023.023 0 0 0 0-.03.894.894 0 0 1 -.228-.825c0-.015-.007-.023-.015-.03-.258-.114-2.542-1.083-2.542-1.09h-.008c-.008 0-.015 0-.015.007l-1.935 1.938a.023.023 0 0 0 0 .03zm.22-5.54s2.307.983 2.406 1.029h.008c.007 0 .007 0 .015-.008a.919.919 0 0 1 .865-.159h.008c.007 0 .015-.008.022-.015l1.875-2.93a.023.023 0 0 0 0-.03l-1.556-1.551c-.007-.008-.007-.008-.015-.008s-.015 0-.015.008l-3.613 3.618c-.008.007-.008.015-.008.022-.007.016 0 .016.008.023zm-.895 6.093c.007 0 .015-.008.022-.016.046-.09.114-.174.182-.25a.023.023 0 0 0 0-.03c-.022-.03-2.08-3.027-2.08-3.035-.007-.008-.007-.008-.022-.015-.007 0-.015 0-.015.007l-2.398 2.392c-.008.008-.008.015-.008.023s.008.015.023.015l4.296.909c-.008 0-.008 0 0 0zm-.198.522c0-.015-.007-.023-.023-.023l-3.726-.78h-.008c-.007 0-.015.008-.022.016-.008.007 0 .022.007.03l1.662 1.665a.024.024 0 0 0 .015.008h.008l2.064-.886c.016-.015.023-.023.023-.03z"/></g></g></svg>